<svg width="20" height="20" viewBox="0 0 20 20" fill="none" xmlns="http://www.w3.org/2000/svg">
<path d="M0 10C0 4.47715 4.47715 0 10 0C15.5228 0 20 4.47715 20 10C20 15.5228 15.5228 20 10 20C4.47715 20 0 15.5228 0 10Z" fill="currentColor"/>
<path fill-rule="evenodd" clip-rule="evenodd" d="M15.0833 7.41667C15.0802 7.57118 15.021 7.71928 14.9167 7.83333L10.1667 12.5833L9.25 13.5C9.13594 13.6043 8.98785 13.6635 8.83333 13.6667C8.67882 13.6635 8.53072 13.6043 8.41667 13.5L7.5 12.5833L5.16667 10.25C5.06238 10.1359 5.00314 9.98785 5 9.83333C5.00314 9.67882 5.06238 9.53072 5.16667 9.41667L6.08333 8.5C6.19739 8.39571 6.34549 8.33648 6.5 8.33333C6.65451 8.33648 6.80261 8.39571 6.91667 8.5L8.83333 10.4167L13.0833 6.16667C13.1974 6.06238 13.3455 6.00314 13.5 6C13.6545 6.00314 13.8026 6.06238 13.9167 6.16667L14.8333 7.08333C15 7.16667 15.0833 7.25 15.0833 7.41667Z" fill="white"/>
</svg>
