<svg width="14" height="14" viewBox="0 0 512 512" fill="none" xmlns="http://www.w3.org/2000/svg">
<path fill-rule="evenodd" clip-rule="evenodd" d="M416 336H224Q209 335 208 320V64Q209 49 224 48H364L432 116V320Q431 335 416 336ZM224 384H416Q443 383 461 365Q479 347 480 320V116Q480 96 466 82L398 14Q384 0 364 0H224Q197 1 179 19Q161 37 160 64V320Q161 347 179 365Q197 383 224 384ZM96 128Q69 129 51 147Q33 165 32 192V448Q33 475 51 493Q69 511 96 512H288Q315 511 333 493Q351 475 352 448V416H304V448Q303 463 288 464H96Q81 463 80 448V192Q81 177 96 176H128V128H96Z" fill="currentColor"/>
</svg>
