<svg width="14" height="14" viewBox="0 0 14 14" fill="none" xmlns="http://www.w3.org/2000/svg">
<path fill-rule="evenodd" clip-rule="evenodd" d="M12.8333 2.91667C12.8333 2.4197 12.5306 2.0391 12.1985 1.77733C11.8598 1.51039 11.4058 1.2955 10.8968 1.12583C9.87267 0.784467 8.495 0.583336 7 0.583336C5.505 0.583336 4.12732 0.784467 3.10322 1.12583C2.59422 1.2955 2.14023 1.51039 1.8015 1.77733C1.46935 2.0391 1.16667 2.4197 1.16667 2.91667V11.0833C1.16667 11.5788 1.46603 11.9595 1.79787 12.2225C2.13553 12.4901 2.58832 12.7051 3.09653 12.8748C4.11897 13.2161 5.49689 13.4167 7 13.4167C8.50311 13.4167 9.88103 13.2161 10.9035 12.8748C11.4117 12.7051 11.8645 12.4901 12.2021 12.2225C12.534 11.9595 12.8333 11.5788 12.8333 11.0833V2.91667ZM2.33511 2.90775C2.33332 2.91363 2.33333 2.91611 2.33333 2.91663C2.33333 2.91658 2.33333 2.91666 2.33333 2.91663C2.33334 2.91735 2.33344 2.92008 2.33511 2.92559C2.3371 2.93209 2.34198 2.94493 2.35379 2.96417C2.37855 3.0045 2.42905 3.06514 2.52364 3.13969C2.71624 3.29148 3.03109 3.45369 3.47215 3.60071C4.34818 3.89272 5.5955 4.08334 7 4.08334C8.4045 4.08334 9.65182 3.89272 10.5278 3.60071C10.9689 3.45369 11.2838 3.29148 11.4764 3.13969C11.571 3.06514 11.6214 3.0045 11.6462 2.96417C11.658 2.94493 11.6629 2.93209 11.6649 2.92559C11.6666 2.92 11.6667 2.91748 11.6667 2.9168C11.6667 2.91676 11.6667 2.91683 11.6667 2.9168C11.6667 2.91628 11.6667 2.91363 11.6649 2.90775C11.6629 2.90125 11.658 2.88841 11.6462 2.86917C11.6214 2.82883 11.571 2.76819 11.4764 2.69365C11.2838 2.54186 10.9689 2.37965 10.5278 2.23263C9.65182 1.94062 8.4045 1.75 7 1.75C5.5955 1.75 4.34818 1.94062 3.47215 2.23263C3.03109 2.37965 2.71624 2.54186 2.52364 2.69365C2.42905 2.76819 2.37855 2.82883 2.35379 2.86917C2.34198 2.88841 2.3371 2.90125 2.33511 2.90775ZM11.6667 4.39052C11.4326 4.5102 11.1728 4.6155 10.8968 4.7075C9.87267 5.04887 8.495 5.25 7 5.25C5.505 5.25 4.12732 5.04887 3.10322 4.7075C2.82722 4.6155 2.56738 4.5102 2.33333 4.39052V7C2.33333 7.00111 2.33338 7.0041 2.33532 7.01051C2.33739 7.01736 2.34234 7.03039 2.35408 7.04966C2.37867 7.09 2.4287 7.15048 2.52244 7.22476C2.71343 7.3761 3.02626 7.53802 3.46597 7.68481C4.33936 7.97639 5.58645 8.16667 7 8.16667C8.41355 8.16667 9.66064 7.97639 10.534 7.68481C10.9737 7.53802 11.2866 7.3761 11.4776 7.22476C11.5713 7.15048 11.6213 7.09 11.6459 7.04966C11.6577 7.03039 11.6626 7.01736 11.6647 7.01051C11.6666 7.0041 11.6667 7.00111 11.6667 7V4.39052ZM11.6667 8.47689C11.4345 8.59563 11.177 8.70012 10.9035 8.79144C9.88103 9.13278 8.50311 9.33334 7 9.33334C5.49689 9.33334 4.11897 9.13278 3.09653 8.79144C2.82297 8.70012 2.56547 8.59563 2.33333 8.47689V11.0833C2.33333 11.0844 2.33338 11.0874 2.33532 11.0938C2.33739 11.1007 2.34234 11.1137 2.35408 11.133C2.37867 11.1733 2.4287 11.2338 2.52244 11.3081C2.71343 11.4594 3.02626 11.6214 3.46597 11.7681C4.33936 12.0597 5.58645 12.25 7 12.25C8.41355 12.25 9.66064 12.0597 10.534 11.7681C10.9737 11.6214 11.2866 11.4594 11.4776 11.3081C11.5713 11.2338 11.6213 11.1733 11.6459 11.133C11.6577 11.1137 11.6626 11.1007 11.6647 11.0938C11.6666 11.0874 11.6667 11.0844 11.6667 11.0833V8.47689Z" fill="currentColor"/>
</svg>
