<?xml version="1.0" encoding="UTF-8"?>
<svg xmlns="http://www.w3.org/2000/svg" viewBox="0 0 76.16 78.12">
  <path fill="#172f60" d="M63.63,56.3c-6.78-1.78-12.13-6.78-19.63-5.35-4.64,1.07-7.14,5.35-11.78,6.42-8.92,1.78-15.35-5.71-23.2-7.85-2.89-.96-5.13.67-6.83,2.93,5.15,14.93,19.32,25.66,36.01,25.66,15.75,0,29.26-9.56,35.06-23.18-3.15,1.54-6.5,2.15-9.63,1.37Z"/>
  <path fill="#4ea324" d="M38.08,0C17.05,0,0,16.78,0,37.48c0,4.28.73,8.39,2.07,12.22,1.7-2.23,3.94-3.84,6.83-2.89,7.85,2.11,14.28,9.49,23.2,7.73,3.04-.69,5.17-2.74,7.58-4.37-.02-.08-1.67-6.31-5.2-6.92-3.6-.61-9.04-.52-13.66-3.58-4.4-2.92-6.94-7.92-7.26-13.19-.32-5.27.49-9.71,2.18-14.7,1.1,2.78,2.37,5.38,4.94,6.91,2.57,1.53,5.4,2.57,8.08,3.91,2.68,1.33,5.29,3.03,6.98,5.5,1.42,2.08,2.11,4.59,2.34,7.1.23,2.51,1.01,4.92.25,7.45-.7-1.76-2.26-3.36-4.55-4.67-12.84-7.33-15.06-14.25-15.15-14.52,1.79,6.29,5.33,9.08,8.72,11.65,2.47,1.87,4.41,3.23,6.83,5.16,4.76,3.78,5.89,9.5,5.91,9.62.43-.28.87-.54,1.33-.77l-.31.16s.11-4.48,3.66-7.89c1.79-1.72,3.24-2.95,5.07-4.62,2.51-2.3,5.13-4.8,6.08-9.95-.05.22-1.3,5.9-11,12.71-1.73,1.22-2.85,2.61-3.28,4.07-.79-1.97-.34-4.41-.35-6.43,0-2.02.36-4.08,1.33-5.84,1.16-2.1,3.12-3.64,5.15-4.91,2.04-1.26,4.21-2.31,6.15-3.72,1.94-1.41,2.75-3.12,3.42-5.42,1.73,3.86,2.27,6.82,2.41,11.05.14,4.23-1.29,8.69-4.58,11.35-3.45,2.79-7.6,3.35-10.42,4.11-2.79.75-2.98,5.16-2.98,5.16l-.28.14c.73-.37,1.51-.67,2.37-.86,7.5-1.41,12.85,3.51,19.63,5.27,3.13.77,6.48.17,9.63-1.35,1.95-4.5,3.02-9.46,3.02-14.66C76.16,16.78,59.11,0,38.08,0Z"/>
</svg>
