<svg width="16" height="16" viewBox="0 0 16 16" fill="none" xmlns="http://www.w3.org/2000/svg">
<g clip-path="url(#clip0_1_13)">
<path fill-rule="evenodd" clip-rule="evenodd" d="M8 5.33333C6.52667 5.33333 5.33333 6.52667 5.33333 8C5.33333 9.47333 6.52667 10.6667 8 10.6667C9.47333 10.6667 10.6667 9.47333 10.6667 8C10.6667 6.52667 9.47333 5.33333 8 5.33333ZM13.96 7.33333C13.6533 4.55333 11.4467 2.34667 8.66667 2.04V0.666667H7.33333V2.04C4.55333 2.34667 2.34667 4.55333 2.04 7.33333H0.666667V8.66667H2.04C2.34667 11.4467 4.55333 13.6533 7.33333 13.96V15.3333H8.66667V13.96C11.4467 13.6533 13.6533 11.4467 13.96 8.66667H15.3333V7.33333H13.96ZM8 12.6667C5.42 12.6667 3.33333 10.58 3.33333 8C3.33333 5.42 5.42 3.33333 8 3.33333C10.58 3.33333 12.6667 5.42 12.6667 8C12.6667 10.58 10.58 12.6667 8 12.6667Z" fill="currentColor"/>
</g>
<defs>
<clipPath id="clip0_1_13">
<rect width="16" height="16" fill="white"/>
</clipPath>
</defs>
</svg>
