<?xml version="1.0" encoding="UTF-8"?>
<svg xmlns="http://www.w3.org/2000/svg" viewBox="0 0 84.71 84.71">
  <circle fill="#172f60" cx="42.35" cy="42.35" r="40.85"/>
  <path fill="#2c84c6" d="M8.22,45.56c9.46,2.82,17.2,12.69,27.95,10.34,5.59-1.41,8.6-7.05,14.19-8.46,9.03-1.88,15.48,4.7,23.65,7.05,2.41.66,4.92.56,7.41-.12,1.17-3.8,1.8-7.83,1.8-12.01C83.21,19.79,64.92,1.5,42.35,1.5S1.5,19.79,1.5,42.35c0,1.66.11,3.29.3,4.89,1.76-1.71,3.88-2.61,6.42-1.69Z"/>
  <path fill="#4ea324" d="M8.22,45.56c9.46,2.82,17.2,12.69,27.95,10.34,5.59-1.41,8.6-7.05,14.19-8.46,9.03-1.88,15.48,4.7,23.65,7.05,2.41.66,4.92.56,7.41-.12,1.17-3.8,1.8-7.83,1.8-12.01C83.21,19.79,64.92,1.5,42.35,1.5S1.5,19.79,1.5,42.35c0,1.66.11,3.29.3,4.89,1.76-1.71,3.88-2.61,6.42-1.69Z"/>
  <path fill="none" stroke="#fff" stroke-miterlimit="10" stroke-width="3" d="M1.8,47.25c2.88-1.82,4.24-2.06,6.42-1.69,9.46,2.82,17.2,12.69,27.95,10.34,5.59-1.41,8.6-7.05,14.19-8.46,9.03-1.88,15.48,4.7,23.65,7.05,2.41.66,4.92.56,7.41-.12"/>
  <path fill="#fff" fill-rule="evenodd" d="M59.33,41.49c4.43,10.88,3.15,21-8.01,25.53-5.74,2.34-12.19,2.34-17.93,0-11.16-4.54-12.43-14.65-8.01-25.53,3.21-7.89,10.45-19.41,16.97-25.55,6.52,6.14,13.76,17.65,16.97,25.55Z"/>
  <circle fill="none" stroke="#fff" stroke-miterlimit="10" stroke-width="3" cx="42.35" cy="42.35" r="40.85"/>
</svg>
