<svg width="14" height="14" viewBox="0 0 14 14" fill="none" xmlns="http://www.w3.org/2000/svg">
<path fill-rule="evenodd" clip-rule="evenodd" d="M4 0C4.36819 0 4.66667 0.298477 4.66667 0.666667V2.66667C4.66667 3.1971 4.45595 3.70581 4.08088 4.08088C3.70581 4.45595 3.1971 4.66667 2.66667 4.66667H0.666667C0.298477 4.66667 0 4.36819 0 4C0 3.63181 0.298477 3.33333 0.666667 3.33333H2.66667C2.84348 3.33333 3.01305 3.2631 3.13807 3.13807C3.2631 3.01305 3.33333 2.84348 3.33333 2.66667V0.666667C3.33333 0.298477 3.63181 0 4 0ZM9.33333 0C9.70152 0 10 0.298477 10 0.666667V2.66667C10 2.84348 10.0702 3.01305 10.1953 3.13807C10.3203 3.2631 10.4899 3.33333 10.6667 3.33333H12.6667C13.0349 3.33333 13.3333 3.63181 13.3333 4C13.3333 4.36819 13.0349 4.66667 12.6667 4.66667H10.6667C10.1362 4.66667 9.62753 4.45595 9.25245 4.08088C8.87738 3.70581 8.66667 3.1971 8.66667 2.66667V0.666667C8.66667 0.298477 8.96514 0 9.33333 0ZM0 9.33333C0 8.96514 0.298477 8.66667 0.666667 8.66667H2.66667C3.1971 8.66667 3.70581 8.87738 4.08088 9.25245C4.45595 9.62753 4.66667 10.1362 4.66667 10.6667V12.6667C4.66667 13.0349 4.36819 13.3333 4 13.3333C3.63181 13.3333 3.33333 13.0349 3.33333 12.6667V10.6667C3.33333 10.4899 3.2631 10.3203 3.13807 10.1953C3.01305 10.0702 2.84348 10 2.66667 10H0.666667C0.298477 10 0 9.70152 0 9.33333ZM10.6667 10C10.4899 10 10.3203 10.0702 10.1953 10.1953C10.0702 10.3203 10 10.4899 10 10.6667V12.6667C10 13.0349 9.70152 13.3333 9.33333 13.3333C8.96514 13.3333 8.66667 13.0349 8.66667 12.6667V10.6667C8.66667 10.1362 8.87738 9.62753 9.25245 9.25245C9.62753 8.87738 10.1362 8.66667 10.6667 8.66667H12.6667C13.0349 8.66667 13.3333 8.96514 13.3333 9.33333C13.3333 9.70152 13.0349 10 12.6667 10H10.6667Z" fill="#565656"/>
</svg>
