<svg width="14" height="14" viewBox="0 0 14 14" fill="none" xmlns="http://www.w3.org/2000/svg">
<path fill-rule="evenodd" clip-rule="evenodd" d="M1.16667 1.16666C0.844501 1.16666 0.583334 1.42783 0.583334 1.75V10.5C0.583334 10.8222 0.844501 11.0833 1.16667 11.0833H5.25C5.55942 11.0833 5.85617 11.2062 6.07496 11.425C6.29375 11.6438 6.41667 11.9406 6.41667 12.25C6.41667 12.5722 6.67783 12.8333 7 12.8333C7.32217 12.8333 7.58333 12.5722 7.58333 12.25C7.58333 11.9406 7.70625 11.6438 7.92504 11.425C8.14384 11.2062 8.44058 11.0833 8.75 11.0833H12.8333C13.1555 11.0833 13.4167 10.8222 13.4167 10.5V1.75C13.4167 1.42783 13.1555 1.16666 12.8333 1.16666H9.33333C8.55979 1.16666 7.81792 1.47395 7.27094 2.02094C7.17278 2.1191 7.08233 2.22354 7 2.33331C6.91767 2.22354 6.82723 2.1191 6.72906 2.02094C6.18208 1.47395 5.44022 1.16666 4.66667 1.16666H1.16667ZM7.58333 10.2293C7.93503 10.0262 8.33687 9.91666 8.75 9.91666H12.25V2.33333H9.33333C8.86921 2.33333 8.42409 2.51771 8.0959 2.84589C7.76771 3.17408 7.58333 3.6192 7.58333 4.08333V10.2293ZM6.41667 10.2293V4.08333C6.41667 3.6192 6.23229 3.17408 5.9041 2.84589C5.57592 2.51771 5.1308 2.33333 4.66667 2.33333H1.75V9.91666H5.25C5.66313 9.91666 6.06497 10.0262 6.41667 10.2293Z" fill="#565656"/>
</svg>
