<svg width="15" height="15" viewBox="0 0 15 15" fill="none" xmlns="http://www.w3.org/2000/svg">
<path d="M9.375 1.25C9.02982 1.25 8.75 1.52982 8.75 1.875C8.75 2.22018 9.02982 2.5 9.375 2.5H11.6161L8.30806 5.80806C8.06398 6.05214 8.06398 6.44786 8.30806 6.69194C8.55214 6.93602 8.94786 6.93602 9.19194 6.69194L12.5 3.38388V5.625C12.5 5.97018 12.7798 6.25 13.125 6.25C13.4702 6.25 13.75 5.97018 13.75 5.625V1.875C13.75 1.52982 13.4702 1.25 13.125 1.25H9.375Z" fill="#565656"/>
<path d="M2.5 9.375C2.5 9.02982 2.22018 8.75 1.875 8.75C1.52982 8.75 1.25 9.02982 1.25 9.375V13.125C1.25 13.4702 1.52982 13.75 1.875 13.75H5.625C5.97018 13.75 6.25 13.4702 6.25 13.125C6.25 12.7798 5.97018 12.5 5.625 12.5H3.38388L6.69194 9.19194C6.93602 8.94786 6.93602 8.55214 6.69194 8.30806C6.44786 8.06398 6.05214 8.06398 5.80806 8.30806L2.5 11.6161V9.375Z" fill="#565656"/>
</svg>
