<svg width="12" height="12" viewBox="0 0 12 12" fill="none" xmlns="http://www.w3.org/2000/svg">
<path fill-rule="evenodd" clip-rule="evenodd" d="M5.83809 1.55163e-06C2.97519 -0.0020717 0.533915 2.07375 0.0757234 4.89974C-0.382468 7.72574 1.27787 10.4666 3.99476 11.3692C4.28642 11.4217 4.39143 11.2408 4.39143 11.0892C4.39143 10.9375 4.39143 10.5817 4.39143 10.0975C2.76393 10.4475 2.41976 9.33333 2.41976 9.33333C2.31082 8.97104 2.07466 8.6603 1.75476 8.45833C1.22392 8.09667 1.79559 8.1025 1.79559 8.1025C2.16564 8.15293 2.49338 8.36714 2.68809 8.68584C3.0232 9.28822 3.78313 9.50497 4.38559 9.17C4.41217 8.87429 4.54232 8.59746 4.75309 8.38834C3.50476 8.26584 2.11642 7.76417 2.11642 5.53C2.10377 4.95172 2.31243 4.39043 2.69976 3.96084C2.52156 3.45893 2.54243 2.90782 2.75809 2.42084C2.75809 2.42084 3.24809 2.26334 4.36226 3.00417C5.31752 2.74737 6.32366 2.74737 7.27892 3.00417C8.39309 2.25167 8.88309 2.42084 8.88309 2.42084C9.09875 2.90782 9.11962 3.45893 8.94143 3.96084C9.32876 4.39043 9.53742 4.95172 9.52476 5.53C9.52476 7.77 8.15976 8.26 6.85892 8.40584C7.14023 8.69175 7.28476 9.08497 7.25559 9.485C7.25559 10.2667 7.25559 10.8967 7.25559 11.0892C7.25559 11.2817 7.36059 11.4275 7.65809 11.3692C10.3708 10.468 12.0309 7.73382 11.5791 4.91123C11.1272 2.08865 8.6966 0.00932209 5.83809 1.55163e-06Z" fill="#565656"/>
</svg>
