<svg width="14" height="14" viewBox="0 0 14 14" fill="none" xmlns="http://www.w3.org/2000/svg">
<g clip-path="url(#clip0_2_17)">
<path fill-rule="evenodd" clip-rule="evenodd" d="M4.66667 0.583328C4.55766 0.583328 4.45564 0.613226 4.36836 0.665268L0.293919 2.99352C0.112167 3.09738 0 3.29066 0 3.5V12.8333C0 13.0413 0.110692 13.2335 0.290543 13.3379C0.470393 13.4422 0.692204 13.443 0.872748 13.3398L4.68502 11.1614L9.06194 13.3498C9.13766 13.3897 9.22322 13.4134 9.31403 13.4163C9.32046 13.4166 9.3269 13.4167 9.33333 13.4167C9.44234 13.4167 9.54436 13.3868 9.63165 13.3347L13.7061 11.0065C13.8878 10.9026 14 10.7093 14 10.5V1.16666C14 0.958721 13.8893 0.766502 13.7095 0.662131C13.5296 0.55776 13.3078 0.557019 13.1273 0.660186L9.31498 2.83863L4.93803 0.650159C4.85832 0.608191 4.76771 0.584137 4.67155 0.583348L4.66667 0.583328ZM9.91667 11.8281L12.8333 10.1615V2.17185L9.91667 3.83852V11.8281ZM8.75 3.86051L5.25 2.11051V10.1395L8.75 11.8895V3.86051ZM1.16667 3.83852L4.08333 2.17185V10.1615L1.16667 11.8281V3.83852Z" fill="white"/>
</g>
<defs>
<clipPath id="clip0_2_17">
<rect width="14" height="14" fill="white"/>
</clipPath>
</defs>
</svg>
