<svg width="12" height="12" viewBox="0 0 12 12" fill="none" xmlns="http://www.w3.org/2000/svg">
<path fill-rule="evenodd" clip-rule="evenodd" d="M0.583333 0C0.261167 0 0 0.261167 0 0.583333V4.66667C0 4.98883 0.261167 5.25 0.583333 5.25H4.66667C4.98883 5.25 5.25 4.98883 5.25 4.66667V0.583333C5.25 0.261167 4.98883 0 4.66667 0H0.583333ZM1.16667 4.08333V1.16667H4.08333V4.08333H1.16667Z" fill="#565656"/>
<path fill-rule="evenodd" clip-rule="evenodd" d="M7 0C6.67783 0 6.41667 0.261167 6.41667 0.583333V4.66667C6.41667 4.98883 6.67783 5.25 7 5.25H11.0833C11.4055 5.25 11.6667 4.98883 11.6667 4.66667V0.583333C11.6667 0.261167 11.4055 0 11.0833 0H7ZM7.58333 4.08333V1.16667H10.5V4.08333H7.58333Z" fill="#565656"/>
<path fill-rule="evenodd" clip-rule="evenodd" d="M6.41667 7C6.41667 6.67783 6.67783 6.41667 7 6.41667H11.0833C11.4055 6.41667 11.6667 6.67783 11.6667 7V11.0833C11.6667 11.4055 11.4055 11.6667 11.0833 11.6667H7C6.67783 11.6667 6.41667 11.4055 6.41667 11.0833V7ZM7.58333 7.58333V10.5H10.5V7.58333H7.58333Z" fill="#565656"/>
<path fill-rule="evenodd" clip-rule="evenodd" d="M0.583333 6.41667C0.261167 6.41667 0 6.67783 0 7V11.0833C0 11.4055 0.261167 11.6667 0.583333 11.6667H4.66667C4.98883 11.6667 5.25 11.4055 5.25 11.0833V7C5.25 6.67783 4.98883 6.41667 4.66667 6.41667H0.583333ZM1.16667 10.5V7.58333H4.08333V10.5H1.16667Z" fill="#565656"/>
</svg>
