<svg width="225" height="58" viewBox="0 0 225 58" fill="none" xmlns="http://www.w3.org/2000/svg">
<g filter="url(#filter0_d_13_155)">
<path d="M4 24.8123C4 15.9757 11.1634 8.81226 20 8.81226H32.5L41.5 0L48.5 8.81226H205C213.837 8.81226 221 15.9757 221 24.8123V34C221 42.8366 213.837 50 205 50H20C11.1634 50 4 42.8366 4 34V24.8123Z" fill="#989898"/>
</g>
<path d="M23.016 35V34.184L29.352 24.72H23.288V23.432H31.424V24.216L25.032 33.696H31.392V35H23.016ZM36.4891 35.16C35.7265 35.16 35.0598 34.9973 34.4891 34.672C33.9238 34.3413 33.4838 33.8587 33.1691 33.224C32.8545 32.5893 32.6971 31.8133 32.6971 30.896C32.6971 30.032 32.8438 29.2747 33.1371 28.624C33.4305 27.9733 33.8598 27.4693 34.4251 27.112C34.9905 26.7493 35.6811 26.568 36.4971 26.568C37.2598 26.568 37.9211 26.736 38.4811 27.072C39.0411 27.4027 39.4758 27.8907 39.7851 28.536C40.0998 29.1813 40.2571 29.968 40.2571 30.896C40.2571 31.7387 40.1131 32.48 39.8251 33.12C39.5371 33.76 39.1131 34.2613 38.5531 34.624C37.9985 34.9813 37.3105 35.16 36.4891 35.16ZM36.4971 33.992C36.9878 33.992 37.4038 33.8667 37.7451 33.616C38.0865 33.3653 38.3451 33.0053 38.5211 32.536C38.7025 32.0667 38.7931 31.5093 38.7931 30.864C38.7931 30.272 38.7131 29.7413 38.5531 29.272C38.3985 28.7973 38.1531 28.4213 37.8171 28.144C37.4811 27.8667 37.0411 27.728 36.4971 27.728C35.9958 27.728 35.5718 27.8533 35.2251 28.104C34.8785 28.3493 34.6145 28.7067 34.4331 29.176C34.2571 29.6453 34.1691 30.208 34.1691 30.864C34.1691 31.4453 34.2465 31.9733 34.4011 32.448C34.5611 32.9227 34.8118 33.2987 35.1531 33.576C35.4998 33.8533 35.9478 33.992 36.4971 33.992ZM45.536 35.16C44.7733 35.16 44.1067 34.9973 43.536 34.672C42.9707 34.3413 42.5307 33.8587 42.216 33.224C41.9013 32.5893 41.744 31.8133 41.744 30.896C41.744 30.032 41.8907 29.2747 42.184 28.624C42.4773 27.9733 42.9067 27.4693 43.472 27.112C44.0373 26.7493 44.728 26.568 45.544 26.568C46.3067 26.568 46.968 26.736 47.528 27.072C48.088 27.4027 48.5227 27.8907 48.832 28.536C49.1467 29.1813 49.304 29.968 49.304 30.896C49.304 31.7387 49.16 32.48 48.872 33.12C48.584 33.76 48.16 34.2613 47.6 34.624C47.0453 34.9813 46.3573 35.16 45.536 35.16ZM45.544 33.992C46.0347 33.992 46.4507 33.8667 46.792 33.616C47.1333 33.3653 47.392 33.0053 47.568 32.536C47.7493 32.0667 47.84 31.5093 47.84 30.864C47.84 30.272 47.76 29.7413 47.6 29.272C47.4453 28.7973 47.2 28.4213 46.864 28.144C46.528 27.8667 46.088 27.728 45.544 27.728C45.0427 27.728 44.6187 27.8533 44.272 28.104C43.9253 28.3493 43.6613 28.7067 43.48 29.176C43.304 29.6453 43.216 30.208 43.216 30.864C43.216 31.4453 43.2933 31.9733 43.448 32.448C43.608 32.9227 43.8587 33.2987 44.2 33.576C44.5467 33.8533 44.9947 33.992 45.544 33.992ZM51.2709 35V26.728H52.6949V27.928C52.9242 27.5653 53.2389 27.248 53.6389 26.976C54.0389 26.704 54.5589 26.568 55.1989 26.568C55.4975 26.568 55.8015 26.6187 56.1109 26.72C56.4255 26.8213 56.7135 26.9733 56.9749 27.176C57.2362 27.3787 57.4389 27.6267 57.5829 27.92C57.8389 27.5147 58.1855 27.1893 58.6229 26.944C59.0602 26.6933 59.5535 26.568 60.1029 26.568C60.3909 26.568 60.6922 26.6133 61.0069 26.704C61.3215 26.7893 61.6122 26.944 61.8789 27.168C62.1509 27.3867 62.3722 27.6933 62.5429 28.088C62.7135 28.4773 62.7989 28.9787 62.7989 29.592V35H61.3109V29.736C61.3109 29.2347 61.2309 28.848 61.0709 28.576C60.9109 28.2987 60.7002 28.104 60.4389 27.992C60.1829 27.88 59.9082 27.824 59.6149 27.824C59.3589 27.824 59.0869 27.8747 58.7989 27.976C58.5109 28.0773 58.2655 28.248 58.0629 28.488C57.8602 28.728 57.7589 29.056 57.7589 29.472V35H56.2869V29.304C56.2869 28.9787 56.1989 28.7067 56.0229 28.488C55.8522 28.2693 55.6362 28.104 55.3749 27.992C55.1189 27.88 54.8629 27.824 54.6069 27.824C54.3242 27.824 54.0389 27.88 53.7509 27.992C53.4682 28.104 53.2282 28.2827 53.0309 28.528C52.8389 28.768 52.7429 29.0827 52.7429 29.472V35H51.2709ZM72.0373 35.04C71.4666 35.04 71.0239 34.9627 70.7093 34.808C70.3946 34.6533 70.1733 34.424 70.0453 34.12C69.9226 33.816 69.8613 33.4427 69.8613 33V27.808H68.5173V26.728H69.9013L70.2613 24.32H71.3493V26.72H73.2133V27.808H71.3493V32.952C71.3493 33.2453 71.3786 33.4613 71.4373 33.6C71.5013 33.7333 71.6053 33.8187 71.7493 33.856C71.8933 33.8933 72.0959 33.912 72.3573 33.912H73.2613V34.904C73.1599 34.9413 73.0053 34.9733 72.7973 35C72.5946 35.0267 72.3413 35.04 72.0373 35.04ZM78.3173 35.16C77.5546 35.16 76.8879 34.9973 76.3173 34.672C75.7519 34.3413 75.3119 33.8587 74.9973 33.224C74.6826 32.5893 74.5253 31.8133 74.5253 30.896C74.5253 30.032 74.6719 29.2747 74.9653 28.624C75.2586 27.9733 75.6879 27.4693 76.2533 27.112C76.8186 26.7493 77.5093 26.568 78.3253 26.568C79.0879 26.568 79.7493 26.736 80.3093 27.072C80.8693 27.4027 81.3039 27.8907 81.6133 28.536C81.9279 29.1813 82.0853 29.968 82.0853 30.896C82.0853 31.7387 81.9413 32.48 81.6533 33.12C81.3653 33.76 80.9413 34.2613 80.3813 34.624C79.8266 34.9813 79.1386 35.16 78.3173 35.16ZM78.3253 33.992C78.8159 33.992 79.2319 33.8667 79.5733 33.616C79.9146 33.3653 80.1733 33.0053 80.3493 32.536C80.5306 32.0667 80.6213 31.5093 80.6213 30.864C80.6213 30.272 80.5413 29.7413 80.3813 29.272C80.2266 28.7973 79.9813 28.4213 79.6453 28.144C79.3093 27.8667 78.8693 27.728 78.3253 27.728C77.8239 27.728 77.3999 27.8533 77.0533 28.104C76.7066 28.3493 76.4426 28.7067 76.2613 29.176C76.0853 29.6453 75.9973 30.208 75.9973 30.864C75.9973 31.4453 76.0746 31.9733 76.2293 32.448C76.3893 32.9227 76.6399 33.2987 76.9813 33.576C77.3279 33.8533 77.7759 33.992 78.3253 33.992ZM90.9739 35.16C90.2272 35.16 89.5659 34.9973 88.9899 34.672C88.4192 34.3467 87.9712 33.8667 87.6459 33.232C87.3259 32.5973 87.1659 31.8187 87.1659 30.896C87.1659 30.032 87.3125 29.2773 87.6059 28.632C87.9045 27.9813 88.3365 27.4747 88.9019 27.112C89.4725 26.7493 90.1632 26.568 90.9739 26.568C91.5659 26.568 92.0965 26.6827 92.5659 26.912C93.0405 27.136 93.4299 27.456 93.7339 27.872C94.0379 28.288 94.2245 28.7787 94.2939 29.344H92.9819C92.9339 29.056 92.8219 28.792 92.6459 28.552C92.4752 28.312 92.2485 28.12 91.9659 27.976C91.6885 27.832 91.3605 27.76 90.9819 27.76C90.2725 27.76 89.6939 28.016 89.2459 28.528C88.8032 29.04 88.5819 29.824 88.5819 30.88C88.5819 31.8347 88.7845 32.6 89.1899 33.176C89.6005 33.7467 90.2032 34.032 90.9979 34.032C91.3765 34.032 91.7072 33.96 91.9899 33.816C92.2725 33.6667 92.4992 33.472 92.6699 33.232C92.8405 32.9867 92.9499 32.7253 92.9979 32.448H94.2859C94.2165 33.0027 94.0272 33.4827 93.7179 33.888C93.4139 34.2933 93.0245 34.608 92.5499 34.832C92.0805 35.0507 91.5552 35.16 90.9739 35.16ZM99.3578 35.16C98.9258 35.1547 98.5178 35.0933 98.1338 34.976C97.7551 34.8533 97.4191 34.6747 97.1258 34.44C96.8324 34.2053 96.6004 33.9147 96.4298 33.568C96.2644 33.216 96.1818 32.808 96.1818 32.344V26.728H97.6618V32.192C97.6618 32.7307 97.8271 33.168 98.1578 33.504C98.4938 33.84 98.9978 34.008 99.6698 34.008C100.278 34.008 100.766 33.8507 101.134 33.536C101.507 33.216 101.694 32.7413 101.694 32.112V26.728H103.166V35H101.99L101.838 33.416C101.736 33.832 101.563 34.168 101.318 34.424C101.078 34.68 100.787 34.8693 100.446 34.992C100.11 35.1093 99.7471 35.1653 99.3578 35.16ZM105.693 35V26.728H107.101V28.32C107.239 27.9253 107.434 27.6 107.685 27.344C107.935 27.0827 108.221 26.888 108.541 26.76C108.866 26.632 109.202 26.568 109.549 26.568C109.671 26.568 109.791 26.576 109.909 26.592C110.026 26.608 110.117 26.6347 110.181 26.672V28.104C110.101 28.0667 109.997 28.0427 109.869 28.032C109.746 28.016 109.642 28.008 109.557 28.008C109.226 27.9867 108.917 28.008 108.629 28.072C108.341 28.1307 108.087 28.2347 107.869 28.384C107.65 28.5333 107.477 28.7307 107.349 28.976C107.226 29.216 107.165 29.5093 107.165 29.856V35H105.693ZM111.943 35V26.728H113.351V28.32C113.489 27.9253 113.684 27.6 113.935 27.344C114.185 27.0827 114.471 26.888 114.791 26.76C115.116 26.632 115.452 26.568 115.799 26.568C115.921 26.568 116.041 26.576 116.159 26.592C116.276 26.608 116.367 26.6347 116.431 26.672V28.104C116.351 28.0667 116.247 28.0427 116.119 28.032C115.996 28.016 115.892 28.008 115.807 28.008C115.476 27.9867 115.167 28.008 114.879 28.072C114.591 28.1307 114.337 28.2347 114.119 28.384C113.9 28.5333 113.727 28.7307 113.599 28.976C113.476 29.216 113.415 29.5093 113.415 29.856V35H111.943ZM121.564 35.16C120.796 35.16 120.118 34.992 119.532 34.656C118.945 34.32 118.486 33.8373 118.156 33.208C117.825 32.5787 117.66 31.824 117.66 30.944C117.66 30.0747 117.809 29.312 118.108 28.656C118.406 28 118.838 27.488 119.404 27.12C119.974 26.752 120.66 26.568 121.46 26.568C122.238 26.568 122.897 26.736 123.436 27.072C123.974 27.408 124.382 27.8827 124.66 28.496C124.942 29.104 125.084 29.8267 125.084 30.664V31.208H119.156C119.156 31.7307 119.241 32.2053 119.412 32.632C119.588 33.0533 119.852 33.3893 120.204 33.64C120.556 33.8907 121.001 34.016 121.54 34.016C122.068 34.016 122.521 33.8933 122.9 33.648C123.284 33.4027 123.529 33.048 123.636 32.584H125.028C124.932 33.144 124.708 33.616 124.356 34C124.009 34.384 123.59 34.6747 123.1 34.872C122.614 35.064 122.102 35.16 121.564 35.16ZM119.164 30.208H123.66C123.66 29.7333 123.58 29.3067 123.42 28.928C123.26 28.544 123.014 28.2427 122.684 28.024C122.358 27.8 121.948 27.688 121.452 27.688C120.934 27.688 120.505 27.8133 120.164 28.064C119.822 28.3093 119.569 28.6267 119.404 29.016C119.238 29.4 119.158 29.7973 119.164 30.208ZM127.13 35V26.728H128.562V27.928C128.696 27.6987 128.88 27.4827 129.114 27.28C129.354 27.0773 129.642 26.9147 129.978 26.792C130.32 26.6693 130.712 26.608 131.154 26.608C131.677 26.608 132.157 26.712 132.594 26.92C133.037 27.128 133.389 27.4533 133.65 27.896C133.917 28.3333 134.05 28.8987 134.05 29.592V35H132.57V29.736C132.57 29.0907 132.4 28.6133 132.058 28.304C131.722 27.9893 131.285 27.832 130.746 27.832C130.373 27.832 130.024 27.8933 129.698 28.016C129.373 28.1333 129.109 28.3147 128.906 28.56C128.704 28.8 128.602 29.104 128.602 29.472V35H127.13ZM139.053 35.04C138.482 35.04 138.04 34.9627 137.725 34.808C137.41 34.6533 137.189 34.424 137.061 34.12C136.938 33.816 136.877 33.4427 136.877 33V27.808H135.533V26.728H136.917L137.277 24.32H138.365V26.72H140.229V27.808H138.365V32.952C138.365 33.2453 138.394 33.4613 138.453 33.6C138.517 33.7333 138.621 33.8187 138.765 33.856C138.909 33.8933 139.112 33.912 139.373 33.912H140.277V34.904C140.176 34.9413 140.021 34.9733 139.813 35C139.61 35.0267 139.357 35.04 139.053 35.04ZM148.218 35.104C147.77 35.104 147.408 35.0427 147.13 34.92C146.858 34.7973 146.648 34.632 146.498 34.424C146.354 34.216 146.256 33.9787 146.202 33.712C146.154 33.44 146.13 33.16 146.13 32.872V23.112H147.586V32.728C147.586 33.144 147.666 33.456 147.826 33.664C147.992 33.872 148.221 33.9867 148.514 34.008L148.962 34.016V34.976C148.84 35.0133 148.712 35.0427 148.578 35.064C148.445 35.0907 148.325 35.104 148.218 35.104ZM153.895 35.16C153.133 35.16 152.466 34.9973 151.895 34.672C151.33 34.3413 150.89 33.8587 150.575 33.224C150.261 32.5893 150.103 31.8133 150.103 30.896C150.103 30.032 150.25 29.2747 150.543 28.624C150.837 27.9733 151.266 27.4693 151.831 27.112C152.397 26.7493 153.087 26.568 153.903 26.568C154.666 26.568 155.327 26.736 155.887 27.072C156.447 27.4027 156.882 27.8907 157.191 28.536C157.506 29.1813 157.663 29.968 157.663 30.896C157.663 31.7387 157.519 32.48 157.231 33.12C156.943 33.76 156.519 34.2613 155.959 34.624C155.405 34.9813 154.717 35.16 153.895 35.16ZM153.903 33.992C154.394 33.992 154.81 33.8667 155.151 33.616C155.493 33.3653 155.751 33.0053 155.927 32.536C156.109 32.0667 156.199 31.5093 156.199 30.864C156.199 30.272 156.119 29.7413 155.959 29.272C155.805 28.7973 155.559 28.4213 155.223 28.144C154.887 27.8667 154.447 27.728 153.903 27.728C153.402 27.728 152.978 27.8533 152.631 28.104C152.285 28.3493 152.021 28.7067 151.839 29.176C151.663 29.6453 151.575 30.208 151.575 30.864C151.575 31.4453 151.653 31.9733 151.807 32.448C151.967 32.9227 152.218 33.2987 152.559 33.576C152.906 33.8533 153.354 33.992 153.903 33.992ZM162.958 35.16C162.212 35.16 161.55 34.9973 160.974 34.672C160.404 34.3467 159.956 33.8667 159.63 33.232C159.31 32.5973 159.15 31.8187 159.15 30.896C159.15 30.032 159.297 29.2773 159.59 28.632C159.889 27.9813 160.321 27.4747 160.886 27.112C161.457 26.7493 162.148 26.568 162.958 26.568C163.55 26.568 164.081 26.6827 164.55 26.912C165.025 27.136 165.414 27.456 165.718 27.872C166.022 28.288 166.209 28.7787 166.278 29.344H164.966C164.918 29.056 164.806 28.792 164.63 28.552C164.46 28.312 164.233 28.12 163.95 27.976C163.673 27.832 163.345 27.76 162.966 27.76C162.257 27.76 161.678 28.016 161.23 28.528C160.788 29.04 160.566 29.824 160.566 30.88C160.566 31.8347 160.769 32.6 161.174 33.176C161.585 33.7467 162.188 34.032 162.982 34.032C163.361 34.032 163.692 33.96 163.974 33.816C164.257 33.6667 164.484 33.472 164.654 33.232C164.825 32.9867 164.934 32.7253 164.982 32.448H166.27C166.201 33.0027 166.012 33.4827 165.702 33.888C165.398 34.2933 165.009 34.608 164.534 34.832C164.065 35.0507 163.54 35.16 162.958 35.16ZM170.56 35.16C170.021 35.16 169.546 35.0667 169.136 34.88C168.73 34.688 168.41 34.4133 168.176 34.056C167.946 33.6987 167.832 33.2667 167.832 32.76C167.832 31.8427 168.152 31.16 168.792 30.712C169.432 30.264 170.458 30.024 171.872 29.992L173.344 29.952V29.304C173.344 28.7973 173.192 28.3973 172.888 28.104C172.584 27.8053 172.114 27.656 171.48 27.656C171.005 27.6613 170.586 27.7733 170.224 27.992C169.861 28.2107 169.629 28.568 169.528 29.064H168.224C168.256 28.5253 168.405 28.072 168.672 27.704C168.944 27.3307 169.325 27.048 169.816 26.856C170.306 26.664 170.885 26.568 171.552 26.568C172.272 26.568 172.869 26.6693 173.344 26.872C173.824 27.0747 174.181 27.3733 174.416 27.768C174.656 28.1627 174.776 28.648 174.776 29.224V35H173.512L173.4 33.448C173.085 34.0933 172.68 34.5413 172.184 34.792C171.693 35.0373 171.152 35.16 170.56 35.16ZM171 34.096C171.282 34.096 171.56 34.0453 171.832 33.944C172.109 33.8427 172.36 33.7067 172.584 33.536C172.813 33.36 172.997 33.1653 173.136 32.952C173.274 32.7333 173.344 32.5093 173.344 32.28V30.864L172.12 30.888C171.485 30.8987 170.957 30.9627 170.536 31.08C170.114 31.1973 169.797 31.3813 169.584 31.632C169.37 31.8827 169.264 32.2107 169.264 32.616C169.264 33.08 169.426 33.4427 169.752 33.704C170.077 33.9653 170.493 34.096 171 34.096ZM179.772 35.04C179.201 35.04 178.758 34.9627 178.444 34.808C178.129 34.6533 177.908 34.424 177.78 34.12C177.657 33.816 177.596 33.4427 177.596 33V27.808H176.252V26.728H177.636L177.996 24.32H179.084V26.72H180.948V27.808H179.084V32.952C179.084 33.2453 179.113 33.4613 179.172 33.6C179.236 33.7333 179.34 33.8187 179.484 33.856C179.628 33.8933 179.83 33.912 180.092 33.912H180.996V34.904C180.894 34.9413 180.74 34.9733 180.532 35C180.329 35.0267 180.076 35.04 179.772 35.04ZM182.998 35V26.728H184.43V35H182.998ZM182.958 24.976V23.44H184.47V24.976H182.958ZM190.224 35.16C189.461 35.16 188.794 34.9973 188.224 34.672C187.658 34.3413 187.218 33.8587 186.904 33.224C186.589 32.5893 186.432 31.8133 186.432 30.896C186.432 30.032 186.578 29.2747 186.872 28.624C187.165 27.9733 187.594 27.4693 188.16 27.112C188.725 26.7493 189.416 26.568 190.232 26.568C190.994 26.568 191.656 26.736 192.216 27.072C192.776 27.4027 193.21 27.8907 193.52 28.536C193.834 29.1813 193.992 29.968 193.992 30.896C193.992 31.7387 193.848 32.48 193.56 33.12C193.272 33.76 192.848 34.2613 192.288 34.624C191.733 34.9813 191.045 35.16 190.224 35.16ZM190.232 33.992C190.722 33.992 191.138 33.8667 191.48 33.616C191.821 33.3653 192.08 33.0053 192.256 32.536C192.437 32.0667 192.528 31.5093 192.528 30.864C192.528 30.272 192.448 29.7413 192.288 29.272C192.133 28.7973 191.888 28.4213 191.552 28.144C191.216 27.8667 190.776 27.728 190.232 27.728C189.73 27.728 189.306 27.8533 188.96 28.104C188.613 28.3493 188.349 28.7067 188.168 29.176C187.992 29.6453 187.904 30.208 187.904 30.864C187.904 31.4453 187.981 31.9733 188.136 32.448C188.296 32.9227 188.546 33.2987 188.888 33.576C189.234 33.8533 189.682 33.992 190.232 33.992ZM195.958 35V26.728H197.39V27.928C197.524 27.6987 197.708 27.4827 197.942 27.28C198.182 27.0773 198.47 26.9147 198.806 26.792C199.148 26.6693 199.54 26.608 199.982 26.608C200.505 26.608 200.985 26.712 201.422 26.92C201.865 27.128 202.217 27.4533 202.478 27.896C202.745 28.3333 202.878 28.8987 202.878 29.592V35H201.398V29.736C201.398 29.0907 201.228 28.6133 200.886 28.304C200.55 27.9893 200.113 27.832 199.574 27.832C199.201 27.832 198.852 27.8933 198.526 28.016C198.201 28.1333 197.937 28.3147 197.734 28.56C197.532 28.8 197.43 29.104 197.43 29.472V35H195.958Z" fill="white"/>
<defs>
<filter id="filter0_d_13_155" x="0" y="0" width="225" height="58" filterUnits="userSpaceOnUse" color-interpolation-filters="sRGB">
<feFlood flood-opacity="0" result="BackgroundImageFix"/>
<feColorMatrix in="SourceAlpha" type="matrix" values="0 0 0 0 0 0 0 0 0 0 0 0 0 0 0 0 0 0 127 0" result="hardAlpha"/>
<feOffset dy="4"/>
<feGaussianBlur stdDeviation="2"/>
<feComposite in2="hardAlpha" operator="out"/>
<feColorMatrix type="matrix" values="0 0 0 0 0 0 0 0 0 0 0 0 0 0 0 0 0 0 0.1 0"/>
<feBlend mode="normal" in2="BackgroundImageFix" result="effect1_dropShadow_13_155"/>
<feBlend mode="normal" in="SourceGraphic" in2="effect1_dropShadow_13_155" result="shape"/>
</filter>
</defs>
</svg>
