<svg width="119" height="54" viewBox="0 0 119 54" fill="none" xmlns="http://www.w3.org/2000/svg">
<g filter="url(#filter0_d_13_151)">
<path d="M115 24.4598C115 33.2963 107.837 40.4598 99 40.4598L65.5 40.4598L58.5 46L52.5 40.4598L20 40.4598C11.1634 40.4598 4 33.2963 4 24.4598V16C4 7.16345 11.1634 -3.8147e-06 20 -3.8147e-06L99 -3.8147e-06C107.837 -3.8147e-06 115 7.16344 115 16V24.4598Z" fill="#989898"/>
</g>
<path d="M22.088 26.524L21.176 26.396L22.92 14.908L23.824 15.012L22.088 26.524ZM16.584 22.748V21.844H24.496V22.748H16.584ZM18.808 26.524L17.896 26.396L19.64 14.908L20.544 15.012L18.808 26.524ZM17.096 19.468V18.564H25.008V19.468H17.096ZM31.7286 26.524L30.8166 26.396L32.5606 14.908L33.4646 15.012L31.7286 26.524ZM26.2246 22.748V21.844H34.1366V22.748H26.2246ZM28.4486 26.524L27.5366 26.396L29.2806 14.908L30.1846 15.012L28.4486 26.524ZM26.7366 19.468V18.564H34.6486V19.468H26.7366ZM41.3693 26.524L40.4573 26.396L42.2013 14.908L43.1053 15.012L41.3693 26.524ZM35.8653 22.748V21.844H43.7773V22.748H35.8653ZM38.0893 26.524L37.1773 26.396L38.9213 14.908L39.8253 15.012L38.0893 26.524ZM36.3773 19.468V18.564H44.2893V19.468H36.3773ZM53.0765 26.66C52.6445 26.6547 52.2365 26.5933 51.8525 26.476C51.4738 26.3533 51.1378 26.1747 50.8445 25.94C50.5512 25.7053 50.3192 25.4147 50.1485 25.068C49.9832 24.716 49.9005 24.308 49.9005 23.844V18.228H51.3805V23.692C51.3805 24.2307 51.5458 24.668 51.8765 25.004C52.2125 25.34 52.7165 25.508 53.3885 25.508C53.9965 25.508 54.4845 25.3507 54.8525 25.036C55.2258 24.716 55.4125 24.2413 55.4125 23.612V18.228H56.8845V26.5H55.7085L55.5565 24.916C55.4552 25.332 55.2818 25.668 55.0365 25.924C54.7965 26.18 54.5058 26.3693 54.1645 26.492C53.8285 26.6093 53.4658 26.6653 53.0765 26.66ZM62.3498 26.54C61.7791 26.54 61.3364 26.4627 61.0218 26.308C60.7071 26.1533 60.4858 25.924 60.3578 25.62C60.2351 25.316 60.1738 24.9427 60.1738 24.5V19.308H58.8298V18.228H60.2138L60.5738 15.82H61.6618V18.22H63.5258V19.308H61.6618V24.452C61.6618 24.7453 61.6911 24.9613 61.7498 25.1C61.8138 25.2333 61.9178 25.3187 62.0618 25.356C62.2058 25.3933 62.4084 25.412 62.6698 25.412H63.5738V26.404C63.4724 26.4413 63.3178 26.4733 63.1098 26.5C62.9071 26.5267 62.6538 26.54 62.3498 26.54ZM65.5765 26.5V18.228H67.0085V26.5H65.5765ZM65.5365 16.476V14.94H67.0485V16.476H65.5365ZM71.6714 26.604C71.2234 26.604 70.8607 26.5427 70.5834 26.42C70.3114 26.2973 70.1007 26.132 69.9514 25.924C69.8074 25.716 69.7087 25.4787 69.6554 25.212C69.6074 24.94 69.5834 24.66 69.5834 24.372V14.612H71.0394V24.228C71.0394 24.644 71.1194 24.956 71.2794 25.164C71.4447 25.372 71.674 25.4867 71.9674 25.508L72.4154 25.516V26.476C72.2927 26.5133 72.1647 26.5427 72.0314 26.564C71.898 26.5907 71.778 26.604 71.6714 26.604ZM74.389 26.5V18.228H75.821V26.5H74.389ZM74.349 16.476V14.94H75.861V16.476H74.349ZM81.3341 26.54C80.7635 26.54 80.3208 26.4627 80.0061 26.308C79.6915 26.1533 79.4701 25.924 79.3421 25.62C79.2195 25.316 79.1581 24.9427 79.1581 24.5V19.308H77.8141V18.228H79.1981L79.5581 15.82H80.6461V18.22H82.5101V19.308H80.6461V24.452C80.6461 24.7453 80.6755 24.9613 80.7341 25.1C80.7981 25.2333 80.9021 25.3187 81.0461 25.356C81.1901 25.3933 81.3928 25.412 81.6541 25.412H82.5581V26.404C82.4568 26.4413 82.3021 26.4733 82.0941 26.5C81.8915 26.5267 81.6381 26.54 81.3341 26.54ZM84.5609 26.5V18.228H85.9929V26.5H84.5609ZM84.5209 16.476V14.94H86.0329V16.476H84.5209ZM91.97 26.66C91.202 26.66 90.5247 26.492 89.938 26.156C89.3513 25.82 88.8927 25.3373 88.562 24.708C88.2313 24.0787 88.066 23.324 88.066 22.444C88.066 21.5747 88.2153 20.812 88.514 20.156C88.8127 19.5 89.2447 18.988 89.81 18.62C90.3807 18.252 91.066 18.068 91.866 18.068C92.6447 18.068 93.3033 18.236 93.842 18.572C94.3807 18.908 94.7887 19.3827 95.066 19.996C95.3487 20.604 95.49 21.3267 95.49 22.164V22.708H89.562C89.562 23.2307 89.6473 23.7053 89.818 24.132C89.994 24.5533 90.258 24.8893 90.61 25.14C90.962 25.3907 91.4073 25.516 91.946 25.516C92.474 25.516 92.9273 25.3933 93.306 25.148C93.69 24.9027 93.9353 24.548 94.042 24.084H95.434C95.338 24.644 95.114 25.116 94.762 25.5C94.4153 25.884 93.9967 26.1747 93.506 26.372C93.0207 26.564 92.5087 26.66 91.97 26.66ZM89.57 21.708H94.066C94.066 21.2333 93.986 20.8067 93.826 20.428C93.666 20.044 93.4207 19.7427 93.09 19.524C92.7647 19.3 92.354 19.188 91.858 19.188C91.3407 19.188 90.9113 19.3133 90.57 19.564C90.2287 19.8093 89.9753 20.1267 89.81 20.516C89.6447 20.9 89.5647 21.2973 89.57 21.708ZM100.466 26.66C99.8896 26.66 99.3536 26.572 98.8576 26.396C98.367 26.2147 97.959 25.9347 97.6336 25.556C97.3083 25.172 97.1056 24.684 97.0256 24.092H98.3696C98.439 24.4173 98.5723 24.6893 98.7696 24.908C98.967 25.1213 99.2096 25.284 99.4976 25.396C99.791 25.5027 100.111 25.556 100.458 25.556C101.018 25.556 101.468 25.452 101.81 25.244C102.151 25.036 102.322 24.716 102.322 24.284C102.322 23.98 102.231 23.7373 102.05 23.556C101.874 23.3693 101.596 23.2333 101.218 23.148L99.5056 22.724C98.839 22.564 98.3056 22.3133 97.9056 21.972C97.511 21.6307 97.311 21.1533 97.3056 20.54C97.3056 20.0547 97.423 19.628 97.6576 19.26C97.8923 18.892 98.2416 18.6013 98.7056 18.388C99.175 18.1747 99.759 18.068 100.458 18.068C101.359 18.068 102.084 18.2707 102.634 18.676C103.183 19.076 103.471 19.6653 103.498 20.444H102.186C102.132 20.0493 101.956 19.7373 101.658 19.508C101.359 19.2733 100.954 19.156 100.442 19.156C99.919 19.156 99.4896 19.2627 99.1536 19.476C98.823 19.684 98.6576 20.0093 98.6576 20.452C98.6576 20.7453 98.775 20.9773 99.0096 21.148C99.2496 21.3133 99.5963 21.452 100.05 21.564L101.714 21.98C102.092 22.0813 102.407 22.2147 102.658 22.38C102.908 22.5453 103.106 22.7293 103.25 22.932C103.394 23.1347 103.495 23.348 103.554 23.572C103.618 23.7907 103.65 24.0013 103.65 24.204C103.65 24.7107 103.524 25.148 103.274 25.516C103.023 25.8787 102.66 26.1613 102.186 26.364C101.711 26.5613 101.138 26.66 100.466 26.66Z" fill="white"/>
<defs>
<filter id="filter0_d_13_151" x="0" y="0" width="119" height="54" filterUnits="userSpaceOnUse" color-interpolation-filters="sRGB">
<feFlood flood-opacity="0" result="BackgroundImageFix"/>
<feColorMatrix in="SourceAlpha" type="matrix" values="0 0 0 0 0 0 0 0 0 0 0 0 0 0 0 0 0 0 127 0" result="hardAlpha"/>
<feOffset dy="4"/>
<feGaussianBlur stdDeviation="2"/>
<feComposite in2="hardAlpha" operator="out"/>
<feColorMatrix type="matrix" values="0 0 0 0 0 0 0 0 0 0 0 0 0 0 0 0 0 0 0.1 0"/>
<feBlend mode="normal" in2="BackgroundImageFix" result="effect1_dropShadow_13_151"/>
<feBlend mode="normal" in="SourceGraphic" in2="effect1_dropShadow_13_151" result="shape"/>
</filter>
</defs>
</svg>
