<svg width="14" height="14" viewBox="0 0 14 14" fill="none" xmlns="http://www.w3.org/2000/svg">
<path d="M7.58333 1.75C7.58333 1.42783 7.32217 1.16666 7 1.16666C6.67783 1.16666 6.41667 1.42783 6.41667 1.75V7.34171L4.49581 5.42085C4.26801 5.19305 3.89866 5.19305 3.67085 5.42085C3.44305 5.64866 3.44305 6.018 3.67085 6.24581L6.58752 9.16248C6.81533 9.39028 7.18467 9.39028 7.41248 9.16248L10.3291 6.24581C10.557 6.018 10.557 5.64866 10.3291 5.42085C10.1013 5.19305 9.73199 5.19305 9.50419 5.42085L7.58333 7.34171V1.75Z" fill="currentColor"/>
<path d="M1.75 8.16666C2.07217 8.16666 2.33333 8.42783 2.33333 8.75V11.0833C2.33333 11.238 2.39479 11.3864 2.50419 11.4958C2.61358 11.6052 2.76196 11.6667 2.91667 11.6667H11.0833C11.238 11.6667 11.3864 11.6052 11.4958 11.4958C11.6052 11.3864 11.6667 11.238 11.6667 11.0833V8.75C11.6667 8.42783 11.9278 8.16666 12.25 8.16666C12.5722 8.16666 12.8333 8.42783 12.8333 8.75V11.0833C12.8333 11.5475 12.649 11.9926 12.3208 12.3208C11.9926 12.649 11.5475 12.8333 11.0833 12.8333H2.91667C2.45254 12.8333 2.00742 12.649 1.67923 12.3208C1.35104 11.9926 1.16667 11.5475 1.16667 11.0833V8.75C1.16667 8.42783 1.42783 8.16666 1.75 8.16666Z" fill="currentColor"/>
</svg>
