<svg width="14" height="13" viewBox="0 0 14 13" fill="none" xmlns="http://www.w3.org/2000/svg">
<path fill-rule="evenodd" clip-rule="evenodd" d="M4.66667 3.04121e-09C4.55766 3.04121e-09 4.45564 0.0298976 4.36836 0.0819397L0.293919 2.41019C0.112167 2.51405 0 2.70733 0 2.91667V12.25C0 12.4579 0.110692 12.6502 0.290543 12.7545C0.470393 12.8589 0.692204 12.8596 0.872748 12.7565L4.68502 10.578L9.06194 12.7665C9.13766 12.8064 9.22322 12.8301 9.31403 12.833C9.32046 12.8332 9.3269 12.8333 9.33333 12.8333C9.44234 12.8333 9.54436 12.8034 9.63165 12.7514L13.7061 10.4231C13.8878 10.3193 14 10.126 14 9.91667V0.583333C14 0.375392 13.8893 0.183174 13.7095 0.0788025C13.5296 -0.0255687 13.3078 -0.0263095 13.1273 0.0768582L9.31498 2.2553L4.93803 0.0668305C4.85832 0.0248632 4.76771 0.000808607 4.67155 2.00924e-05L4.66667 3.04121e-09ZM9.91667 11.2448L12.8333 9.57815V1.58852L9.91667 3.25519V11.2448ZM8.75 3.27719L5.25 1.52719V9.55615L8.75 11.3061V3.27719ZM1.16667 3.25519L4.08333 1.58852V9.57815L1.16667 11.2448V3.25519Z" fill="currentColor"/>
</svg>
