<svg width="216" height="40" viewBox="0 0 216 40" fill="none" xmlns="http://www.w3.org/2000/svg">
<path d="M16 0.5H200C208.56 0.5 215.5 7.43959 215.5 16V24C215.5 32.5604 208.56 39.5 200 39.5H16C7.43959 39.5 0.5 32.5604 0.5 24V16C0.5 7.43959 7.43959 0.5 16 0.5Z" fill="white" stroke="#BFBFBF"/>
<path d="M53.104 25V14.792H49.368V13.432H58.12V14.792H54.592V25H53.104ZM62.1106 25.16C61.3426 25.16 60.6653 24.992 60.0786 24.656C59.492 24.32 59.0333 23.8373 58.7026 23.208C58.372 22.5787 58.2066 21.824 58.2066 20.944C58.2066 20.0747 58.356 19.312 58.6546 18.656C58.9533 18 59.3853 17.488 59.9506 17.12C60.5213 16.752 61.2066 16.568 62.0066 16.568C62.7853 16.568 63.444 16.736 63.9826 17.072C64.5213 17.408 64.9293 17.8827 65.2066 18.496C65.4893 19.104 65.6306 19.8267 65.6306 20.664V21.208H59.7026C59.7026 21.7307 59.788 22.2053 59.9586 22.632C60.1346 23.0533 60.3986 23.3893 60.7506 23.64C61.1026 23.8907 61.548 24.016 62.0866 24.016C62.6146 24.016 63.068 23.8933 63.4466 23.648C63.8306 23.4027 64.076 23.048 64.1826 22.584H65.5746C65.4786 23.144 65.2546 23.616 64.9026 24C64.556 24.384 64.1373 24.6747 63.6466 24.872C63.1613 25.064 62.6493 25.16 62.1106 25.16ZM59.7106 20.208H64.2066C64.2066 19.7333 64.1266 19.3067 63.9666 18.928C63.8066 18.544 63.5613 18.2427 63.2306 18.024C62.9053 17.8 62.4946 17.688 61.9986 17.688C61.4813 17.688 61.052 17.8133 60.7106 18.064C60.3693 18.3093 60.116 18.6267 59.9506 19.016C59.7853 19.4 59.7053 19.7973 59.7106 20.208ZM66.3946 25L69.5786 20.704L66.6506 16.728H68.2586L70.4106 19.632L72.5626 16.728H74.1786L71.2346 20.704L74.4186 25H72.8106L70.4026 21.76L68.0106 25H66.3946ZM78.8029 25.04C78.2322 25.04 77.7895 24.9627 77.4749 24.808C77.1602 24.6533 76.9389 24.424 76.8109 24.12C76.6882 23.816 76.6269 23.4427 76.6269 23V17.808H75.2829V16.728H76.6669L77.0269 14.32H78.1149V16.72H79.9789V17.808H78.1149V22.952C78.1149 23.2453 78.1442 23.4613 78.2029 23.6C78.2669 23.7333 78.3709 23.8187 78.5149 23.856C78.6589 23.8933 78.8615 23.912 79.1229 23.912H80.0269V24.904C79.9255 24.9413 79.7709 24.9733 79.5629 25C79.3602 25.0267 79.1069 25.04 78.8029 25.04Z" fill="currentColor"/>
<rect x="25" y="12" width="14" height="14" fill="currentColor"/>
</svg>
