<svg width="16" height="16" viewBox="0 0 16 16" fill="none" xmlns="http://www.w3.org/2000/svg">
<path d="M7.33301 1C10.8307 1 13.6668 3.83535 13.667 7.33301C13.667 8.72096 13.2182 10.0031 12.4609 11.0469L14.707 13.293C15.0972 13.6835 15.0974 14.3166 14.707 14.707C14.3166 15.0974 13.6835 15.0972 13.293 14.707L11.0469 12.4609C10.0031 13.2182 8.72096 13.667 7.33301 13.667C3.83535 13.6668 1 10.8307 1 7.33301C1.00018 3.83546 3.83546 1.00018 7.33301 1ZM7.33301 3C4.94003 3.00018 3.00018 4.94003 3 7.33301C3 9.72613 4.93992 11.6668 7.33301 11.667C8.49733 11.667 9.55328 11.2063 10.332 10.459C10.3511 10.4362 10.3712 10.414 10.3926 10.3926C10.414 10.3712 10.4362 10.3511 10.459 10.332C11.2063 9.55328 11.667 8.49733 11.667 7.33301C11.6668 4.93992 9.72613 3 7.33301 3Z" fill="currentColor"/>
</svg>
